<svg id="behance" width="18" height="18" viewBox="0 0 18 18" fill="none" xmlns="http://www.w3.org/2000/svg">
<path d="M0 9C0 4.02944 4.02944 0 9 0C13.9706 0 18 4.02944 18 9C18 13.9706 13.9706 18 9 18C4.02944 18 0 13.9706 0 9Z" fill="#1769FF"/>
<path fill-rule="evenodd" clip-rule="evenodd" d="M8.87641 7.51684C8.87641 7.16993 8.78554 6.87258 8.60435 6.62367C8.30237 6.21828 7.79043 6.01058 7.06681 6H4.20001V11.8524H6.87321C7.17462 11.8524 7.45345 11.8268 7.7114 11.7739C7.96935 11.7205 8.19231 11.623 8.3814 11.4799C8.5496 11.3552 8.68958 11.2015 8.80134 11.0194C8.97801 10.7443 9.06606 10.433 9.06606 10.0861C9.06606 9.74979 8.98874 9.46357 8.83521 9.22859C8.67999 8.99304 8.45195 8.82098 8.14941 8.71183C8.34866 8.6116 8.49936 8.50023 8.60209 8.37884C8.78554 8.16167 8.87641 7.87378 8.87641 7.51684ZM12.8766 7.0012H10.3344V6.27285H12.8766V7.0012ZM10.6307 9.26033C10.6725 8.97857 10.7746 8.75527 10.9366 8.59044C11.0986 8.42562 11.3278 8.3432 11.6213 8.3432C11.8922 8.3432 12.1186 8.42061 12.3026 8.57597C12.4843 8.73244 12.5871 8.95963 12.6079 9.26033H10.6307ZM12.6525 7.61262C12.959 7.74738 13.2113 7.96121 13.41 8.25299C13.5912 8.51025 13.7075 8.80872 13.7605 9.14784C13.7916 9.34608 13.804 9.63341 13.7989 10.0071H10.6025C10.6217 10.4408 10.7729 10.7454 11.0619 10.9197C11.2369 11.0283 11.4474 11.0829 11.6947 11.0829C11.9549 11.0829 12.1677 11.0166 12.3308 10.8846C12.4205 10.8128 12.4996 10.7137 12.5673 10.5867H13.7385C13.7075 10.8429 13.5652 11.104 13.3135 11.3691C12.9206 11.7895 12.3703 12 11.6631 12C11.0789 12 10.5635 11.8229 10.1182 11.4677C9.67058 11.1129 9.44819 10.5349 9.44819 9.73531C9.44819 8.98524 9.6497 8.41002 10.0521 8.00965C10.4557 7.61039 10.9778 7.40937 11.6207 7.40937C12.0029 7.40937 12.3466 7.47731 12.6525 7.61262ZM5.38252 10.8367V9.27591H6.84329C7.09729 9.27814 7.29541 9.31155 7.43652 9.37503C7.68883 9.48919 7.81413 9.698 7.81413 10.0032C7.81413 10.3629 7.68431 10.6057 7.4241 10.7337C7.2813 10.8022 7.08036 10.8367 6.82297 10.8367H5.38252ZM5.38252 7.01624V8.30756H6.82523C7.08205 8.30756 7.29146 8.25912 7.45289 8.16223C7.61319 8.06534 7.69391 7.89383 7.69391 7.64882C7.69391 7.37541 7.58779 7.19554 7.37556 7.10756C7.19155 7.04687 6.95787 7.01624 6.67396 7.01624H5.38252Z" fill="white"/>
</svg>
