<svg id="link" width="18" height="18" viewBox="0 0 18 18" fill="none" xmlns="http://www.w3.org/2000/svg">
<path d="M0 9C0 4.02944 4.02944 0 9 0C13.9706 0 18 4.02944 18 9C18 13.9706 13.9706 18 9 18C4.02944 18 0 13.9706 0 9Z" fill="#FF668B"/>
<path d="M4.08643 8.628C4.24208 7.746 5.00923 7.14 5.84309 7.14H7.47189C7.76096 7.14 8 6.882 8 6.57C8 6.258 7.76096 6 7.47189 6H5.89868C4.44777 6 3.15251 7.146 3.01353 8.706C2.85232 10.494 4.15314 12 5.77638 12H7.47189C7.76096 12 8 11.742 8 11.43C8 11.118 7.76096 10.86 7.47189 10.86H5.77638C4.7146 10.86 3.87518 9.816 4.08643 8.628Z" fill="white"/>
<path d="M12.0994 6H10.5276C10.2388 6 10 6.258 10 6.57C10 6.882 10.2388 7.14 10.5276 7.14H12.1549C12.988 7.14 13.7544 7.746 13.9099 8.628C14.121 9.816 13.2823 10.86 12.2215 10.86H10.5276C10.2388 10.86 10 11.118 10 11.43C10 11.742 10.2388 12 10.5276 12H12.2215C13.8433 12 15.1429 10.494 14.9874 8.706C14.8485 7.146 13.5489 6 12.0994 6Z" fill="white"/>
<path fill-rule="evenodd" clip-rule="evenodd" d="M7 9C7 8.72386 7.22386 8.5 7.5 8.5H11C11.2761 8.5 11.5 8.72386 11.5 9C11.5 9.27614 11.2761 9.5 11 9.5H7.5C7.22386 9.5 7 9.27614 7 9Z" fill="white"/>
</svg>
