<svg id="mail" width="18" height="18" viewBox="0 0 18 18" fill="none" xmlns="http://www.w3.org/2000/svg">
<path d="M0 9C0 4.02944 4.02944 0 9 0C13.9706 0 18 4.02944 18 9C18 13.9706 13.9706 18 9 18C4.02944 18 0 13.9706 0 9Z" fill="#FF668B"/>
<path fill-rule="evenodd" clip-rule="evenodd" d="M5 5H13C13.55 5 14 5.45 14 6V12C14 12.55 13.55 13 13 13H5C4.45 13 4 12.55 4 12V6C4 5.45 4.45 5 5 5ZM9.53 9.17L12.8 7.125C12.925 7.045 13 6.91 13 6.765C13 6.43 12.635 6.23 12.35 6.405L9 8.5L5.65 6.405C5.365 6.23 5 6.43 5 6.765C5 6.91 5.075 7.045 5.2 7.125L8.47 9.17C8.795 9.375 9.205 9.375 9.53 9.17Z" fill="white"/>
</svg>
