<svg id="telegram" width="18" height="18" viewBox="0 0 18 18" fill="none" xmlns="http://www.w3.org/2000/svg">
<path d="M9 18C13.9706 18 18 13.9706 18 9C18 4.02944 13.9706 0 9 0C4.02944 0 0 4.02944 0 9C0 13.9706 4.02944 18 9 18Z" fill="#37AEE2"/>
<path d="M3.35183 9.44022C4.40393 8.86071 5.57835 8.37702 6.67568 7.89087C8.5635 7.09459 10.4588 6.31212 12.3733 5.58364C12.7458 5.45953 13.415 5.33816 13.4807 5.89014C13.4447 6.67149 13.2969 7.44826 13.1955 8.22504C12.9381 9.93324 12.6407 11.6356 12.3506 13.3382C12.2507 13.9053 11.5402 14.1989 11.0857 13.8359C9.99322 13.098 8.89237 12.3673 7.81387 11.6123C7.46058 11.2533 7.78819 10.7378 8.10371 10.4814C9.00348 9.59468 9.95771 8.84131 10.8105 7.90876C11.0405 7.3533 10.3608 7.82142 10.1366 7.96487C8.90484 8.81372 7.70319 9.71439 6.40449 10.4604C5.74112 10.8256 4.96794 10.5135 4.30487 10.3098C3.71035 10.0636 2.83914 9.8156 3.35177 9.44029L3.35183 9.44022Z" fill="white"/>
</svg>
